<svg id="visual" viewBox="0 0 900 600" width="900" height="600" xmlns="http://www.w3.org/2000/svg" xmlns:xlink="http://www.w3.org/1999/xlink" version="1.1"><rect x="0" y="0" width="900" height="600" fill="#FFFFFF"></rect><defs><linearGradient id="grad1_0" x1="33.3%" y1="0%" x2="100%" y2="100%"><stop offset="20%" stop-color="#ffffff" stop-opacity="1"></stop><stop offset="80%" stop-color="#ffffff" stop-opacity="1"></stop></linearGradient></defs><defs><linearGradient id="grad2_0" x1="0%" y1="0%" x2="66.7%" y2="100%"><stop offset="20%" stop-color="#ffffff" stop-opacity="1"></stop><stop offset="80%" stop-color="#ffffff" stop-opacity="1"></stop></linearGradient></defs><g transform="translate(900, 0)"><path d="M0 324.5C-44.3 316.7 -88.7 308.8 -117.9 284.6C-147.1 260.3 -161.1 219.6 -193 193C-225 166.5 -274.9 154 -299.8 124.2C-324.7 94.4 -324.6 47.2 -324.5 0L0 0Z" fill="#FF714B"></path></g><g transform="translate(0, 600)"><path d="M0 -324.5C36.4 -295.7 72.9 -266.9 100.6 -243C128.4 -219.1 147.6 -200 183.8 -183.8C220.1 -167.7 273.5 -154.3 299.8 -124.2C326.1 -94 325.3 -47 324.5 0L0 0Z" fill="#FF714B"></path></g></svg>