<svg id="visual" viewBox="0 0 960 540" width="960" height="540" xmlns="http://www.w3.org/2000/svg" xmlns:xlink="http://www.w3.org/1999/xlink" version="1.1"><rect x="0" y="0" width="960" height="540" fill="#FFFFFF"></rect><path d="M0 184L17.8 170.2C35.7 156.3 71.3 128.7 106.8 115.8C142.3 103 177.7 105 213.2 108C248.7 111 284.3 115 320 130.5C355.7 146 391.3 173 426.8 177.8C462.3 182.7 497.7 165.3 533.2 155C568.7 144.7 604.3 141.3 640 152.8C675.7 164.3 711.3 190.7 746.8 204.2C782.3 217.7 817.7 218.3 853.2 212.3C888.7 206.3 924.3 193.7 942.2 187.3L960 181L960 0L942.2 0C924.3 0 888.7 0 853.2 0C817.7 0 782.3 0 746.8 0C711.3 0 675.7 0 640 0C604.3 0 568.7 0 533.2 0C497.7 0 462.3 0 426.8 0C391.3 0 355.7 0 320 0C284.3 0 248.7 0 213.2 0C177.7 0 142.3 0 106.8 0C71.3 0 35.7 0 17.8 0L0 0Z" fill="#FF8C00" stroke-linecap="round" stroke-linejoin="miter"></path></svg>